# xmcd CD database file
#
# Track frame offsets:
#	150
#	19813
#	38743
#	56765
#	70475
#	88705
#	104538
#	122195
#	136055
#	149708
#	167623
#
# Disc length: 2583 seconds
#
# Revision: 0
# Processed by: cddbd v1.4b41PL1 Copyright (c) Steve Scherf et al.
# Submitted via: Feurio! 1.61 - http://www.feurio.com
#
DISCID=a10a150b
DTITLE=Larry Barrett - Flowers
DYEAR=1900
DGENRE=
TTITLE0=Never Did Never Will
TTITLE1=Jesse Harper
TTITLE2=House Of Sky
TTITLE3=Then There Was Sally
TTITLE4=15 Foolish Questions
TTITLE5=Iraqi Soldier's Lament
TTITLE6=Whisper To Me Gently
TTITLE7=Ballad Of Leroy Sleep
TTITLE8=Twisted Roots Of Trees
TTITLE9=One Afternoon wwswc
TTITLE10=Queen Ernette
EXTD=Digipak.\r\nGRCD 298 - EFA 08298-2
EXTT0=
EXTT1=
EXTT2=
EXTT3=
EXTT4=
EXTT5=
EXTT6=
EXTT7=
EXTT8=
EXTT9=
EXTT10=
PLAYORDER=
